<svg xmlns="http://www.w3.org/2000/svg" version="1.0" width="753.000000pt" height="510.000000pt" viewBox="0 0 753.000000 510.000000" preserveAspectRatio="xMidYMid meet">

<g transform="translate(0.000000,510.000000) scale(0.100000,-0.100000)" fill="#ffffff" stroke="none">
<path d="M4250 4894 c-124 -33 -1220 -398 -1288 -430 -126 -57 -183 -104 -347 -283 -26 -29 -63 -44 -315 -126 -157 -51 -519 -170 -805 -263 -286 -94 -592 -193 -681 -221 -248 -79 -343 -152 -403 -314 -21 -57 -21 -69 -21 -627 l0 -568 -52 -9 -53 -8 -3 -137 c-3 -171 -11 -163 177 -172 74 -3 137 -8 139 -11 3 -3 9 -48 13 -101 9 -103 36 -179 69 -189 10 -3 20 -15 23 -26 3 -11 14 -23 25 -26 14 -3 22 -17 27 -41 3 -21 13 -59 22 -85 8 -27 12 -51 9 -54 -5 -5 -201 12 -427 37 -47 6 -109 10 -137 10 -46 0 -54 -3 -64 -25 -8 -18 -8 -32 2 -55 14 -34 21 -36 135 -45 151 -11 237 -26 225 -40 -6 -7 -31 -16 -55 -20 -35 -5 -45 -11 -45 -25 0 -24 15 -29 123 -36 84 -5 100 -3 189 25 94 29 101 30 189 20 81 -9 156 -27 121 -28 -7 -1 -11 -5 -7 -10 6 -10 -9 -16 -67 -27 -28 -4 -38 -11 -38 -25 0 -25 49 -34 175 -33 81 0 115 5 180 27 77 25 83 26 180 16 101 -11 166 -27 117 -28 -13 -1 -21 -5 -17 -11 3 -5 -13 -14 -35 -20 -28 -8 -40 -16 -40 -29 0 -23 24 -29 155 -37 92 -5 107 -4 196 24 l96 30 124 -15 c68 -8 126 -17 128 -19 10 -10 -25 -34 -58 -40 -47 -9 -71 -21 -71 -38 0 -17 21 -23 140 -37 l95 -11 125 40 125 39 149 -18 c82 -10 150 -19 151 -21 12 -11 -30 -39 -76 -50 -42 -10 -55 -18 -57 -34 -3 -24 -4 -24 145 -45 101 -14 121 -11 249 35 l102 36 162 -19 c90 -11 164 -22 166 -24 10 -10 -39 -39 -82 -50 -48 -12 -69 -37 -47 -57 4 -5 65 -16 135 -26 l127 -17 128 45 128 45 180 -23 c99 -13 186 -24 194 -24 29 0 -29 -41 -82 -58 -39 -13 -53 -22 -55 -39 -4 -26 -1 -27 153 -52 l120 -19 100 34 c186 65 175 64 409 35 116 -14 209 -30 208 -36 0 -5 -40 -23 -88 -40 -72 -24 -89 -34 -89 -50 0 -27 39 -39 195 -60 l125 -18 109 42 c68 25 126 41 153 41 46 0 254 -28 590 -80 277 -43 352 -40 374 17 14 39 -5 80 -45 92 -31 11 -257 50 -416 72 -47 7 -79 14 -72 17 14 4 180 -14 752 -84 420 -51 476 -53 514 -23 30 24 35 71 11 106 -20 29 -62 40 -175 48 -52 3 -183 17 -290 31 -202 25 -591 68 -1150 129 -179 19 -342 38 -363 41 -36 6 -37 7 -22 24 45 50 167 65 980 121 170 11 229 25 264 62 11 13 119 214 239 447 l217 424 52 16 c87 25 88 25 91 223 4 197 -2 214 -71 226 l-36 6 -4 305 c-4 244 -8 317 -21 365 -40 143 -105 246 -352 555 -99 124 -194 245 -210 270 -32 46 -128 219 -299 537 -95 176 -101 186 -184 261 -196 178 -291 243 -422 286 -92 31 -112 33 -586 51 -459 18 -601 18 -673 -1z m1027 -190 c46 -29 47 -122 1 -171 -22 -25 -26 -25 -128 -20 -101 5 -105 6 -132 36 -47 53 -33 149 25 170 33 12 209 1 234 -15z m-1088 -436 c11 -35 36 -123 56 -197 20 -74 50 -162 68 -195 65 -123 174 -204 308 -225 68 -11 1683 -46 1698 -36 16 10 491 -606 491 -637 0 -6 -16 -8 -42 -5 -24 4 -324 9 -668 13 l-625 6 -100 34 c-114 37 -198 74 -302 134 -40 22 -73 39 -73 36 0 -2 21 -16 46 -31 25 -15 43 -32 41 -38 -5 -15 -26 -16 -50 -4 -17 8 -17 6 -6 -15 11 -21 11 -22 -4 -10 -13 11 -15 10 -10 -7 8 -30 -12 -26 -36 7 -11 15 -2 -10 21 -56 l42 -82 0 -123 c0 -67 -1 -229 -2 -359 l-2 -237 -111 -3 c-61 -2 -115 -1 -119 2 -4 3 -10 64 -12 135 -5 150 -25 210 -94 280 -87 89 -144 99 -429 74 -121 -10 -353 -30 -515 -45 -162 -14 -401 -33 -530 -42 l-235 -17 -5 425 c-3 234 -4 427 -3 429 2 2 12 -4 23 -14 19 -17 36 -15 487 59 258 42 487 81 511 88 42 11 72 44 72 81 0 14 -151 517 -164 548 -6 13 15 22 111 51 65 20 123 37 130 37 6 1 20 -27 32 -61z m-1519 -1143 c0 -90 -1 -95 -22 -99 -48 -10 -162 -27 -578 -85 -80 -11 -239 -34 -354 -51 -114 -17 -210 -29 -213 -27 -2 2 21 27 52 55 75 69 195 127 325 157 100 23 735 142 773 144 15 1 17 -10 17 -94z m-14 -272 c-3 -10 -10 -38 -16 -63 -22 -89 -31 -108 -53 -114 -12 -4 -260 -31 -552 -61 -291 -30 -593 -61 -669 -70 -77 -8 -142 -13 -144 -10 -2 2 4 19 15 37 20 34 106 88 173 108 58 17 299 57 575 95 143 19 305 42 360 51 332 50 318 49 311 27z m4171 -35 c-2 -13 -4 -5 -4 17 -1 22 1 32 4 23 2 -10 2 -28 0 -40z m0 -90 c-3 -7 -5 -2 -5 12 0 14 2 19 5 13 2 -7 2 -19 0 -25z m0 -40 c-3 -8 -6 -5 -6 6 -1 11 2 17 5 13 3 -3 4 -12 1 -19z m0 -50 c-3 -7 -5 -2 -5 12 0 14 2 19 5 13 2 -7 2 -19 0 -25z m-4263 -200 c-6 -40 -18 -85 -25 -100 -12 -28 -13 -28 -118 -29 -58 0 -126 -2 -151 -4 -25 -2 -121 -6 -215 -10 -93 -3 -242 -10 -330 -15 -88 -5 -261 -14 -385 -20 -124 -6 -244 -13 -267 -16 l-43 -5 1 58 c1 32 4 46 6 32 4 -25 6 -26 31 -14 15 7 144 27 287 45 143 18 267 34 275 35 8 2 101 13 205 25 105 13 294 38 420 56 127 17 251 32 276 33 l46 1 -13 -72z m4263 -80 c-2 -24 -4 -7 -4 37 0 44 2 63 4 43 2 -21 2 -57 0 -80z m-679 -95 c-10 -2 -28 -2 -40 0 -13 2 -5 4 17 4 22 1 32 -1 23 -4z m320 0 c-53 -2 -143 -2 -200 0 -57 1 -13 3 97 3 110 0 156 -2 103 -3z m135 0 c-7 -2 -19 -2 -25 0 -7 3 -2 5 12 5 14 0 19 -2 13 -5z m-1216 -9 c-3 -3 -12 -4 -19 -1 -8 3 -5 6 6 6 11 1 17 -2 13 -5z m86 -1 c-7 -2 -19 -2 -25 0 -7 3 -2 5 12 5 14 0 19 -2 13 -5z m90 0 c-13 -2 -35 -2 -50 0 -16 2 -5 4 22 4 28 0 40 -2 28 -4z m-3100 -100 c-7 -2 -21 -2 -30 0 -10 3 -4 5 12 5 17 0 24 -2 18 -5z m-230 -10 c-18 -2 -48 -2 -65 0 -18 2 -4 4 32 4 36 0 50 -2 33 -4z m-270 -10 c-13 -2 -33 -2 -45 0 -13 2 -3 4 22 4 25 0 35 -2 23 -4z m-256 -9 c-3 -3 -12 -4 -19 -1 -8 3 -5 6 6 6 11 1 17 -2 13 -5z m46 -1 c-7 -2 -19 -2 -25 0 -7 3 -2 5 12 5 14 0 19 -2 13 -5z m-216 -9 c-3 -3 -12 -4 -19 -1 -8 3 -5 6 6 6 11 1 17 -2 13 -5z m328 -873 c39 -6 41 -8 64 -74 13 -37 21 -70 18 -73 -5 -5 -377 25 -385 31 -1 1 26 31 60 67 l63 65 70 -4 c39 -3 88 -8 110 -12z m870 -57 l55 -7 20 -55 c11 -30 33 -75 47 -100 l27 -45 -105 6 c-121 8 -463 38 -467 42 -8 7 13 33 38 48 16 10 51 43 77 73 l48 56 102 -6 c57 -3 127 -9 158 -12z m2074 -287 c78 -70 141 -132 141 -137 0 -13 5 -13 -204 10 -99 11 -194 20 -212 20 -18 0 -35 4 -39 9 -3 5 19 33 48 63 29 29 66 79 82 110 17 32 33 57 37 55 4 -1 70 -60 147 -130z m-1097 107 c142 -15 143 -16 173 -49 41 -45 61 -83 49 -95 -5 -5 -38 -5 -84 0 -41 5 -163 19 -270 30 -107 12 -196 22 -197 24 -1 1 19 25 45 54 56 61 59 61 284 36z" fill="#ffffff"/>
</g>
</svg>